<svg xmlns="http://www.w3.org/2000/svg" viewBox="20 -90 520 760"><path fill="#ffffff" d="M148 350 C196 420 218 500 208 640 C142 530 112 440 120 368 Z"/><path fill="#ffffff" d="M248 388 C238 448 244 505 262 560 C222 505 220 440 232 392 Z"/><path fill="#ffffff" stroke="#ffffff" stroke-width="26" stroke-linejoin="round" d="M223.6 108.3L282.0 192.4L384.2 186.6L322.3 268.2L359.3 363.6L262.7 329.9L183.4 394.6L185.5 292.3L99.5 236.8L197.5 207.3Z"/><circle cx="203" cy="242" r="15" fill="#2345bd"/><circle cx="296" cy="240" r="15" fill="#2345bd"/><path d="M213 288 Q253 320 292 285" fill="none" stroke="#2345bd" stroke-width="14" stroke-linecap="round"/><g transform="translate(448,88)"><path d="M-24 -78 L24 -78 L15 -10 Q0 6 -15 -10 Z" fill="#ffffff"/><rect x="-4.5" y="0" width="9" height="58" rx="4" fill="#ffffff"/><rect x="-23" y="54" width="46" height="10" rx="5" fill="#ffffff"/></g><path d="M352 228 C400 208 428 180 442 130" fill="none" stroke="#ffffff" stroke-width="21" stroke-linecap="round"/><circle cx="448" cy="120" r="13.5" fill="#ffffff"/><circle cx="472" cy="-30" r="9" fill="#ffffff"/><circle cx="436" cy="-48" r="6" fill="#ffffff"/><circle cx="500" cy="-58" r="5" fill="#ffffff"/><path fill="#ffffff" d="M96 100 L104 126 L130 134 L104 142 L96 168 L88 142 L62 134 L88 126 Z"/><path d="M132 288 C98 300 72 326 60 358" fill="none" stroke="#ffffff" stroke-width="21" stroke-linecap="round"/></svg>